<svg width="64" height="65" viewBox="0 0 64 65" fill="none" xmlns="http://www.w3.org/2000/svg">
<path d="M32 20.5C33.5823 20.5 35.129 20.0308 36.4446 19.1518C37.7602 18.2727 38.7855 17.0233 39.391 15.5615C39.9965 14.0997 40.155 12.4911 39.8463 10.9393C39.5376 9.38743 38.7757 7.96197 37.6569 6.84315C36.538 5.72433 35.1126 4.9624 33.5607 4.65372C32.0089 4.34504 30.4003 4.50347 28.9385 5.10897C27.4767 5.71447 26.2273 6.73985 25.3482 8.05544C24.4692 9.37103 24 10.9178 24 12.5C24 14.6217 24.8429 16.6566 26.3431 18.1569C27.8434 19.6571 29.8783 20.5 32 20.5ZM32 8.5C32.7911 8.5 33.5645 8.7346 34.2223 9.17413C34.8801 9.61365 35.3928 10.2384 35.6955 10.9693C35.9983 11.7002 36.0775 12.5044 35.9231 13.2804C35.7688 14.0563 35.3878 14.769 34.8284 15.3284C34.269 15.8878 33.5563 16.2688 32.7804 16.4231C32.0044 16.5775 31.2002 16.4983 30.4693 16.1955C29.7384 15.8928 29.1137 15.3801 28.6741 14.7223C28.2346 14.0645 28 13.2911 28 12.5C28 11.4391 28.4214 10.4217 29.1716 9.67158C29.9217 8.92143 30.9391 8.5 32 8.5ZM57.715 33.53C57.5798 33.7559 57.4013 33.953 57.1897 34.1097C56.9782 34.2665 56.7378 34.38 56.4823 34.4436C56.2268 34.5073 55.9612 34.5199 55.7008 34.4806C55.4405 34.4414 55.1904 34.3511 54.965 34.215C54.8775 34.1625 46.1875 29.0675 33.995 28.5475V37.75L49.495 55.1825C49.6693 55.3795 49.8032 55.6089 49.8888 55.8576C49.9745 56.1063 50.0104 56.3694 49.9943 56.632C49.9783 56.8945 49.9108 57.1514 49.7955 57.3878C49.6802 57.6243 49.5195 57.8357 49.3225 58.01C49.1255 58.1843 48.8961 58.3182 48.6474 58.4038C48.3987 58.4895 48.1356 58.5254 47.873 58.5093C47.6105 58.4933 47.3536 58.4258 47.1172 58.3105C46.8808 58.1952 46.6693 58.0345 46.495 57.8375L32 41.5L17.5 57.8275C17.3257 58.0245 17.1143 58.1852 16.8778 58.3005C16.6414 58.4158 16.3845 58.4833 16.122 58.4993C15.8594 58.5154 15.5963 58.4795 15.3476 58.3938C15.0989 58.3082 14.8695 58.1743 14.6725 58C14.4755 57.8257 14.3148 57.6143 14.1995 57.3778C14.0843 57.1414 14.0167 56.8845 14.0007 56.622C13.9846 56.3594 14.0205 56.0963 14.1062 55.8476C14.1918 55.5989 14.3257 55.3695 14.5 55.1725L30 37.75V28.545C17.75 29.065 9.12 34.16 9.03 34.215C8.8047 34.3534 8.55418 34.4458 8.29295 34.4867C8.03172 34.5277 7.76495 34.5165 7.50809 34.4537C7.25123 34.3909 7.00938 34.2778 6.79652 34.1209C6.58366 33.964 6.40402 33.7665 6.268 33.5397C6.13198 33.3129 6.04227 33.0615 6.00407 32.7998C5.96587 32.5382 5.97994 32.2715 6.04546 32.0154C6.11097 31.7592 6.22664 31.5185 6.38577 31.3073C6.54489 31.0962 6.74432 30.9186 6.9725 30.785C7.4 30.5275 17.6125 24.5 32 24.5C46.3875 24.5 56.6 30.5275 57.03 30.785C57.2553 30.9202 57.4517 31.0985 57.608 31.3096C57.7644 31.5208 57.8776 31.7607 57.9412 32.0156C58.0048 32.2705 58.0176 32.5354 57.9788 32.7953C57.94 33.0551 57.8503 33.3048 57.715 33.53Z" fill="black"/>
</svg>
