<svg width="25" height="25" viewBox="0 0 25 25" fill="none" xmlns="http://www.w3.org/2000/svg">
<path d="M12.6906 2.27832C10.7622 2.27832 8.87713 2.85015 7.27375 3.92149C5.67037 4.99284 4.42069 6.51558 3.68273 8.29716C2.94478 10.0787 2.75169 12.0391 3.1279 13.9305C3.50411 15.8218 4.4327 17.559 5.79627 18.9226C7.15983 20.2862 8.89711 21.2148 10.7884 21.591C12.6797 21.9672 14.6401 21.7741 16.4217 21.0361C18.2033 20.2982 19.726 19.0485 20.7974 17.4451C21.8687 15.8418 22.4406 13.9567 22.4406 12.0283C22.4378 9.4433 21.4097 6.96493 19.5818 5.13704C17.7539 3.30916 15.2756 2.28105 12.6906 2.27832ZM13.4406 20.2436V14.2783H15.6906C15.8895 14.2783 16.0802 14.1993 16.2209 14.0587C16.3615 13.918 16.4406 13.7272 16.4406 13.5283C16.4406 13.3294 16.3615 13.1386 16.2209 12.998C16.0802 12.8573 15.8895 12.7783 15.6906 12.7783H13.4406V10.5283C13.4406 10.1305 13.5986 9.74896 13.8799 9.46766C14.1612 9.18636 14.5427 9.02832 14.9406 9.02832H16.4406C16.6395 9.02832 16.8302 8.9493 16.9709 8.80865C17.1115 8.668 17.1906 8.47723 17.1906 8.27832C17.1906 8.07941 17.1115 7.88864 16.9709 7.74799C16.8302 7.60734 16.6395 7.52832 16.4406 7.52832H14.9406C14.1449 7.52832 13.3818 7.84439 12.8192 8.407C12.2566 8.96961 11.9406 9.73267 11.9406 10.5283V12.7783H9.69056C9.49164 12.7783 9.30088 12.8573 9.16023 12.998C9.01957 13.1386 8.94056 13.3294 8.94056 13.5283C8.94056 13.7272 9.01957 13.918 9.16023 14.0587C9.30088 14.1993 9.49164 14.2783 9.69056 14.2783H11.9406V20.2436C9.8263 20.0506 7.86783 19.05 6.47253 17.4498C5.07722 15.8497 4.3525 13.7733 4.4491 11.6524C4.5457 9.53156 5.4562 7.52959 6.99119 6.06292C8.52618 4.59625 10.5675 3.77779 12.6906 3.77779C14.8136 3.77779 16.8549 4.59625 18.3899 6.06292C19.9249 7.52959 20.8354 9.53156 20.932 11.6524C21.0286 13.7733 20.3039 15.8497 18.9086 17.4498C17.5133 19.05 15.5548 20.0506 13.4406 20.2436Z" fill="white"/>
</svg>
