<svg width="64" height="65" viewBox="0 0 64 65" fill="none" xmlns="http://www.w3.org/2000/svg">
<g clip-path="url(#clip0_371_23)">
<path d="M62 30.5H60V22.5C60 21.4391 59.5786 20.4217 58.8284 19.6716C58.0783 18.9214 57.0609 18.5 56 18.5H52V16.5C52 15.4391 51.5786 14.4217 50.8284 13.6716C50.0783 12.9214 49.0609 12.5 48 12.5L42 12.5C40.9391 12.5 39.9217 12.9214 39.1716 13.6716C38.4214 14.4217 38 15.4391 38 16.5V30.5L26 30.5V16.5C26 15.4391 25.5786 14.4217 24.8284 13.6716C24.0783 12.9214 23.0609 12.5 22 12.5L16 12.5C14.9391 12.5 13.9217 12.9214 13.1716 13.6716C12.4214 14.4217 12 15.4391 12 16.5V18.5H8C6.93913 18.5 5.92172 18.9214 5.17157 19.6716C4.42143 20.4217 4 21.4391 4 22.5L4 30.5H2C1.46957 30.5 0.960859 30.7107 0.585786 31.0858C0.210714 31.4609 0 31.9696 0 32.5C0 33.0304 0.210714 33.5391 0.585786 33.9142C0.960859 34.2893 1.46957 34.5 2 34.5H4L4 42.5C4 43.5609 4.42143 44.5783 5.17157 45.3284C5.92172 46.0786 6.93913 46.5 8 46.5H12V48.5C12 49.5609 12.4214 50.5783 13.1716 51.3284C13.9217 52.0786 14.9391 52.5 16 52.5H22C23.0609 52.5 24.0783 52.0786 24.8284 51.3284C25.5786 50.5783 26 49.5609 26 48.5L26 34.5H38V48.5C38 49.5609 38.4214 50.5783 39.1716 51.3284C39.9217 52.0786 40.9391 52.5 42 52.5H48C49.0609 52.5 50.0783 52.0786 50.8284 51.3284C51.5786 50.5783 52 49.5609 52 48.5V46.5H56C57.0609 46.5 58.0783 46.0786 58.8284 45.3284C59.5786 44.5783 60 43.5609 60 42.5V34.5H62C62.5304 34.5 63.0391 34.2893 63.4142 33.9142C63.7893 33.5391 64 33.0304 64 32.5C64 31.9696 63.7893 31.4609 63.4142 31.0858C63.0391 30.7107 62.5304 30.5 62 30.5ZM8 42.5L8 22.5H12L12 42.5H8ZM22 48.5H16L16 16.5H22L22 48.5ZM48 48.5H42V16.5H48V44.455C48 44.47 48 44.485 48 44.5C48 44.515 48 44.53 48 44.545V48.5ZM56 42.5H52V22.5H56V42.5Z" fill="black"/>
</g>
<defs>
<clipPath id="clip0_371_23">
<rect width="64" height="64" fill="white" transform="translate(0 0.5)"/>
</clipPath>
</defs>
</svg>
