<svg width="64" height="65" viewBox="0 0 64 65" fill="none" xmlns="http://www.w3.org/2000/svg">
<path d="M18 36.5H8C7.46957 36.5 6.96086 36.2893 6.58579 35.9142C6.21071 35.5391 6 35.0304 6 34.5C6 33.9696 6.21071 33.4609 6.58579 33.0858C6.96086 32.7107 7.46957 32.5 8 32.5H16.93L20.335 27.39C20.5176 27.1157 20.7651 26.8907 21.0556 26.7351C21.346 26.5795 21.6705 26.498 22 26.498C22.3295 26.498 22.654 26.5795 22.9444 26.7351C23.2349 26.8907 23.4824 27.1157 23.665 27.39L30 36.89L32.335 33.39C32.5178 33.116 32.7654 32.8914 33.0559 32.7362C33.3463 32.5809 33.6706 32.4998 34 32.5H40C40.5304 32.5 41.0391 32.7107 41.4142 33.0858C41.7893 33.4609 42 33.9696 42 34.5C42 35.0304 41.7893 35.5391 41.4142 35.9142C41.0391 36.2893 40.5304 36.5 40 36.5H35.07L31.665 41.61C31.4824 41.8843 31.2349 42.1093 30.9444 42.2649C30.654 42.4205 30.3295 42.5019 30 42.5019C29.6705 42.5019 29.346 42.4205 29.0556 42.2649C28.7651 42.1093 28.5176 41.8843 28.335 41.61L22 32.105L19.665 35.605C19.4828 35.8799 19.2354 36.1055 18.9449 36.2616C18.6544 36.4178 18.3298 36.4997 18 36.5ZM44.5 10.5C39.3375 10.5 34.8175 12.72 32 16.4725C29.1825 12.72 24.6625 10.5 19.5 10.5C15.3906 10.5046 11.4508 12.1392 8.54496 15.045C5.63915 17.9508 4.00463 21.8906 4 26C4 26.1875 4 26.375 4 26.5625C4.01658 27.0929 4.24319 27.5951 4.62998 27.9584C5.01677 28.3218 5.53207 28.5166 6.0625 28.5C6.59293 28.4834 7.09506 28.2568 7.45841 27.87C7.82176 27.4832 8.01658 26.9679 8 26.4375C8 26.2925 8 26.145 8 26C8.00397 22.9512 9.21685 20.0285 11.3727 17.8727C13.5285 15.7168 16.4512 14.504 19.5 14.5C24.3625 14.5 28.445 17.09 30.15 21.25C30.3007 21.6168 30.557 21.9306 30.8864 22.1514C31.2158 22.3722 31.6034 22.4901 32 22.4901C32.3966 22.4901 32.7842 22.3722 33.1136 22.1514C33.443 21.9306 33.6993 21.6168 33.85 21.25C35.555 17.0825 39.6375 14.5 44.5 14.5C47.5488 14.504 50.4715 15.7168 52.6273 17.8727C54.7832 20.0285 55.996 22.9512 56 26C56 39.4025 36.56 51.5375 32 54.2C29.2925 52.6225 21.3425 47.7 15.33 41.1475C15.1524 40.9538 14.9384 40.797 14.7001 40.686C14.4619 40.575 14.2042 40.512 13.9416 40.5007C13.6791 40.4893 13.4168 40.5297 13.1699 40.6197C12.923 40.7097 12.6962 40.8474 12.5025 41.025C12.3088 41.2026 12.152 41.4166 12.041 41.6549C11.93 41.8931 11.867 42.1508 11.8557 42.4134C11.8443 42.6759 11.8847 42.9382 11.9747 43.1851C12.0647 43.432 12.2024 43.6588 12.38 43.8525C20.1725 52.3525 30.6125 58.0225 31.0525 58.26C31.3437 58.4167 31.6693 58.4987 32 58.4987C32.3307 58.4987 32.6563 58.4167 32.9475 58.26C34.0525 57.665 60 43.5 60 26C59.9954 21.8906 58.3609 17.9508 55.455 15.045C52.5492 12.1392 48.6094 10.5046 44.5 10.5Z" fill="black"/>
</svg>
