<svg width="24" height="25" viewBox="0 0 24 25" fill="none" xmlns="http://www.w3.org/2000/svg">
<path d="M12 8.05469C11.11 8.05469 10.24 8.31861 9.49993 8.81307C8.75991 9.30754 8.18314 10.0103 7.84254 10.8326C7.50195 11.6549 7.41283 12.5597 7.58647 13.4326C7.7601 14.3055 8.18868 15.1073 8.81802 15.7367C9.44736 16.366 10.2492 16.7946 11.1221 16.9682C11.995 17.1419 12.8998 17.0527 13.7221 16.7121C14.5443 16.3716 15.2471 15.7948 15.7416 15.0548C16.2361 14.3147 16.5 13.4447 16.5 12.5547C16.4988 11.3616 16.0243 10.2177 15.1806 9.37408C14.337 8.53043 13.1931 8.05593 12 8.05469ZM12 15.5547C11.4067 15.5547 10.8266 15.3787 10.3333 15.0491C9.83994 14.7195 9.45542 14.2509 9.22836 13.7027C9.0013 13.1546 8.94189 12.5514 9.05764 11.9694C9.1734 11.3875 9.45912 10.8529 9.87868 10.4334C10.2982 10.0138 10.8328 9.72809 11.4147 9.61233C11.9967 9.49658 12.5999 9.55599 13.148 9.78305C13.6962 10.0101 14.1648 10.3946 14.4944 10.888C14.8241 11.3813 15 11.9613 15 12.5547C15 13.3503 14.6839 14.1134 14.1213 14.676C13.5587 15.2386 12.7956 15.5547 12 15.5547ZM16.5 2.80469H7.5C6.10807 2.80618 4.77358 3.35978 3.78933 4.34402C2.80509 5.32826 2.25149 6.66276 2.25 8.05469V17.0547C2.25149 18.4466 2.80509 19.7811 3.78933 20.7654C4.77358 21.7496 6.10807 22.3032 7.5 22.3047H16.5C17.8919 22.3032 19.2264 21.7496 20.2107 20.7654C21.1949 19.7811 21.7485 18.4466 21.75 17.0547V8.05469C21.7485 6.66276 21.1949 5.32826 20.2107 4.34402C19.2264 3.35978 17.8919 2.80618 16.5 2.80469ZM20.25 17.0547C20.25 18.0492 19.8549 19.0031 19.1517 19.7063C18.4484 20.4096 17.4946 20.8047 16.5 20.8047H7.5C6.50544 20.8047 5.55161 20.4096 4.84835 19.7063C4.14509 19.0031 3.75 18.0492 3.75 17.0547V8.05469C3.75 7.06013 4.14509 6.1063 4.84835 5.40304C5.55161 4.69978 6.50544 4.30469 7.5 4.30469H16.5C17.4946 4.30469 18.4484 4.69978 19.1517 5.40304C19.8549 6.1063 20.25 7.06013 20.25 8.05469V17.0547ZM18 7.67969C18 7.90219 17.934 8.1197 17.8104 8.3047C17.6868 8.48971 17.5111 8.6339 17.3055 8.71905C17.1 8.8042 16.8738 8.82648 16.6555 8.78307C16.4373 8.73966 16.2368 8.63252 16.0795 8.47518C15.9222 8.31785 15.815 8.11739 15.7716 7.89916C15.7282 7.68094 15.7505 7.45474 15.8356 7.24917C15.9208 7.0436 16.065 6.8679 16.25 6.74428C16.435 6.62067 16.6525 6.55469 16.875 6.55469C17.1734 6.55469 17.4595 6.67321 17.6705 6.88419C17.8815 7.09517 18 7.38132 18 7.67969Z" fill="white"/>
</svg>
