<svg width="25" height="24" viewBox="0 0 25 24" fill="none" xmlns="http://www.w3.org/2000/svg">
<path d="M20.9764 2.25H4.47644C4.07862 2.25 3.69708 2.40804 3.41578 2.68934C3.13448 2.97064 2.97644 3.35218 2.97644 3.75V20.25C2.97644 20.6478 3.13448 21.0294 3.41578 21.3107C3.69708 21.592 4.07862 21.75 4.47644 21.75H20.9764C21.3743 21.75 21.7558 21.592 22.0371 21.3107C22.3184 21.0294 22.4764 20.6478 22.4764 20.25V3.75C22.4764 3.35218 22.3184 2.97064 22.0371 2.68934C21.7558 2.40804 21.3743 2.25 20.9764 2.25ZM20.9764 20.25H4.47644V3.75H20.9764V20.25ZM9.72644 10.5V16.5C9.72644 16.6989 9.64742 16.8897 9.50677 17.0303C9.36612 17.171 9.17535 17.25 8.97644 17.25C8.77753 17.25 8.58676 17.171 8.44611 17.0303C8.30546 16.8897 8.22644 16.6989 8.22644 16.5V10.5C8.22644 10.3011 8.30546 10.1103 8.44611 9.96967C8.58676 9.82902 8.77753 9.75 8.97644 9.75C9.17535 9.75 9.36612 9.82902 9.50677 9.96967C9.64742 10.1103 9.72644 10.3011 9.72644 10.5ZM17.9764 13.125V16.5C17.9764 16.6989 17.8974 16.8897 17.7568 17.0303C17.6161 17.171 17.4254 17.25 17.2264 17.25C17.0275 17.25 16.8368 17.171 16.6961 17.0303C16.5555 16.8897 16.4764 16.6989 16.4764 16.5V13.125C16.4764 12.6277 16.2789 12.1508 15.9273 11.7992C15.5756 11.4475 15.0987 11.25 14.6014 11.25C14.1042 11.25 13.6272 11.4475 13.2756 11.7992C12.924 12.1508 12.7264 12.6277 12.7264 13.125V16.5C12.7264 16.6989 12.6474 16.8897 12.5068 17.0303C12.3661 17.171 12.1754 17.25 11.9764 17.25C11.7775 17.25 11.5868 17.171 11.4461 17.0303C11.3055 16.8897 11.2264 16.6989 11.2264 16.5V10.5C11.2274 10.3163 11.2957 10.1393 11.4185 10.0026C11.5412 9.86596 11.7099 9.7791 11.8924 9.75852C12.075 9.73794 12.2587 9.78508 12.4088 9.89099C12.5589 9.99691 12.6649 10.1542 12.7068 10.3331C13.2141 9.98894 13.8056 9.78947 14.4178 9.75611C15.03 9.72276 15.6397 9.85679 16.1815 10.1438C16.7232 10.4308 17.1766 10.86 17.4928 11.3852C17.809 11.9105 17.9762 12.5119 17.9764 13.125ZM10.1014 7.875C10.1014 8.0975 10.0355 8.31501 9.91184 8.50002C9.78823 8.68502 9.61253 8.82922 9.40696 8.91436C9.20139 8.99951 8.97519 9.02179 8.75696 8.97838C8.53873 8.93498 8.33828 8.82783 8.18095 8.6705C8.02361 8.51316 7.91647 8.31271 7.87306 8.09448C7.82965 7.87625 7.85193 7.65005 7.93708 7.44448C8.02222 7.23891 8.16642 7.06321 8.35142 6.9396C8.53643 6.81598 8.75394 6.75 8.97644 6.75C9.27481 6.75 9.56096 6.86853 9.77194 7.0795C9.98291 7.29048 10.1014 7.57663 10.1014 7.875Z" fill="white"/>
</svg>
