<svg width="24" height="24" viewBox="0 0 24 24" fill="none" xmlns="http://www.w3.org/2000/svg">
<path d="M18.1999 3.40003C16.2999 1.70003 13.7999 0.800022 11.1999 1.10003C7.19995 1.40003 3.89995 4.30003 3.19995 8.00003C2.69995 10.4 3.19995 12.8 4.69995 14.8L9.79995 21.9C10.1999 22.6 11.0999 23 11.9999 23C12.8999 23 13.7999 22.6 14.2999 21.8L19.3999 14.7C20.4999 13.2 20.9999 11.5 20.9999 9.70003C20.9999 7.30003 19.9999 5.00003 18.1999 3.40003Z" fill="#E4E1FB"/>
<path d="M12 13.0998C13.8777 13.0998 15.4 11.5776 15.4 9.6998C15.4 7.82203 13.8777 6.2998 12 6.2998C10.1222 6.2998 8.59998 7.82203 8.59998 9.6998C8.59998 11.5776 10.1222 13.0998 12 13.0998Z" fill="#151128"/>
</svg>
