<svg width="24" height="25" viewBox="0 0 24 25" fill="none" xmlns="http://www.w3.org/2000/svg">
<path d="M19.8069 6.18678C20.1051 6.4324 20.3533 6.73701 20.5337 7.08381C20.5907 7.19354 20.5479 7.3264 20.4428 7.39151L14.1768 11.2705C12.833 12.1024 11.1384 12.1199 9.77776 11.3158L3.46993 7.5884C3.36802 7.52818 3.32124 7.40422 3.36717 7.29512C3.54978 6.86134 3.83436 6.48308 4.19038 6.18904L4.19004 6.18606L4.20231 6.17924C4.46575 5.96401 4.76778 5.79465 5.09619 5.68264L9.20606 3.39938C10.9427 2.43458 13.0543 2.43458 14.7909 3.39938L18.896 5.67996C19.2301 5.79285 19.5371 5.96505 19.8042 6.18454L19.8069 6.18678Z" fill="#E4E1FB"/>
<path d="M2.98891 9.45399C3.00709 9.27375 3.20609 9.17457 3.36206 9.26673L9.01468 12.6069C10.8557 13.6947 13.1483 13.6711 14.9665 12.5456L20.611 9.05136C20.7663 8.95526 20.9686 9.05261 20.9883 9.23413C21.2683 11.8215 21.2146 14.4361 20.827 17.0131C20.6285 18.3333 19.5511 19.3453 18.2212 19.4609L16.7109 19.5922C13.5763 19.8647 10.4239 19.8647 7.28924 19.5922L5.77901 19.4609C4.44907 19.3453 3.37166 18.3333 3.17314 17.0131C2.79659 14.509 2.73518 11.9696 2.98891 9.45399Z" fill="#E4E1FB"/>
</svg>
