<svg width="64" height="65" viewBox="0 0 64 65" fill="none" xmlns="http://www.w3.org/2000/svg">
<path d="M32 6.5C26.8577 6.5 21.8309 8.02487 17.5552 10.8818C13.2795 13.7387 9.94702 17.7994 7.97914 22.5502C6.01127 27.3011 5.49638 32.5288 6.49959 37.5723C7.50281 42.6159 9.97907 47.2486 13.6152 50.8848C17.2514 54.5209 21.8842 56.9972 26.9277 58.0004C31.9712 59.0036 37.1989 58.4887 41.9498 56.5209C46.7007 54.553 50.7613 51.2205 53.6182 46.9448C56.4751 42.6691 58 37.6423 58 32.5C57.9927 25.6066 55.2511 18.9976 50.3767 14.1233C45.5024 9.24889 38.8934 6.50728 32 6.5ZM51.13 43.355H42.725L40.41 40.165L43.5675 30.97L47.3175 29.7475L53.8775 34.78C53.5671 37.7981 52.6314 40.7185 51.13 43.355ZM10.13 34.78L16.6775 29.75L20.4275 30.9725L23.585 40.1675L21.275 43.355H12.87C11.3669 40.7189 10.4295 37.7985 10.1175 34.78H10.13ZM12.63 22.12L14.0075 26.77L10.1775 29.6925C10.5171 27.0408 11.3407 24.4741 12.6075 22.12H12.63ZM27.25 38.5L24.385 30.1625L32 24.9275L39.615 30.1625L36.75 38.5H27.25ZM50.0175 26.77L51.395 22.12C52.6618 24.4741 53.4855 27.0408 53.825 29.6925L50.0175 26.77ZM48.4675 17.925L46.09 25.945L42.3225 27.1675L34 21.4475V17.5525L41.2725 12.5525C44.0117 13.8335 46.4595 15.6619 48.465 17.925H48.4675ZM36.5175 10.9675L32 14.0725L27.4825 10.9675C30.4619 10.3442 33.5381 10.3442 36.5175 10.9675ZM22.7275 12.5525L30 17.5525V21.4475L21.68 27.1675L17.9125 25.945L15.535 17.925C17.5406 15.6619 19.9884 13.8335 22.7275 12.5525ZM15.7875 47.355H20.88L22.6725 52.4225C20.0696 51.1975 17.7308 49.4762 15.7875 47.355ZM27.5 54.0325L24.53 45.6775L26.8375 42.5H37.1625L39.47 45.6775L36.5125 54.0325C33.5365 54.6562 30.4635 54.6562 27.4875 54.0325H27.5ZM41.34 52.4225L43.1325 47.355H48.225C46.278 49.4775 43.9349 51.1989 41.3275 52.4225H41.34Z" fill="black"/>
</svg>
