<svg width="24" height="25" viewBox="0 0 24 25" fill="none" xmlns="http://www.w3.org/2000/svg">
<path d="M20.1328 20.4025L14.264 11.1794L20.0549 4.80906C20.1859 4.66143 20.2534 4.46812 20.2428 4.27105C20.2322 4.07398 20.1444 3.88903 19.9983 3.7563C19.8523 3.62357 19.6598 3.55376 19.4626 3.562C19.2654 3.57023 19.0794 3.65586 18.9449 3.80031L13.4287 9.86781L9.63276 3.9025C9.56507 3.79596 9.47158 3.70822 9.36097 3.64742C9.25035 3.58662 9.12617 3.55473 8.99994 3.55469H4.49994C4.36547 3.55462 4.23345 3.59071 4.11771 3.65918C4.00198 3.72765 3.90677 3.82598 3.84208 3.94386C3.77738 4.06175 3.74558 4.19487 3.74998 4.32927C3.75439 4.46367 3.79485 4.59442 3.86713 4.70781L9.73588 13.93L3.94494 20.305C3.87732 20.3776 3.82479 20.463 3.79039 20.5561C3.75599 20.6492 3.74041 20.7482 3.74455 20.8473C3.74869 20.9465 3.77248 21.0439 3.81452 21.1338C3.85657 21.2237 3.91604 21.3043 3.98949 21.3711C4.06293 21.4378 4.1489 21.4893 4.2424 21.5226C4.3359 21.5559 4.43508 21.5703 4.53419 21.5649C4.63329 21.5596 4.73035 21.5347 4.81974 21.4915C4.90914 21.4484 4.98908 21.388 5.05494 21.3137L10.5712 15.2463L14.3671 21.2116C14.4354 21.3172 14.5291 21.404 14.6397 21.464C14.7503 21.524 14.8742 21.5552 14.9999 21.5547H19.4999C19.6343 21.5546 19.7661 21.5185 19.8817 21.4501C19.9973 21.3817 20.0924 21.2835 20.1571 21.1657C20.2218 21.048 20.2536 20.9151 20.2493 20.7808C20.2451 20.6465 20.2048 20.5159 20.1328 20.4025ZM15.4115 20.0547L5.86588 5.05469H8.58463L18.134 20.0547H15.4115Z" fill="white"/>
</svg>
